/* XPM */
static char *result[] = {
/* columns rows colors chars-per-pixel */
"32 32 12 1 ",
"  c #40264D",
". c #644574",
"X c #563767",
"o c #2D241B",
"O c #9F7949",
"+ c #765934",
"@ c #644A28",
"# c #86663F",
"$ c #694D2A",
"% c #504131",
"& c #888894",
"* c #65656F",
/* pixels */
"                                ",
"       ......................   ",
"      .XXXXXXXXXXXXXXXXXXXXXX.  ",
"      .XXX.XXXXXXXXXXXXXXXXXXX. ",
"      .XXXXXXXXXXXXXXXX.XXXXXX. ",
"      .XXXXXXoooooXXXX. .XXXXX. ",
"     ..XXXoooOOOOOooo.   .XXXX. ",
" ..   ...oOOO+++++OOOo. .XXXXX. ",
" ....   oO+++@@@@@+++Oo.XXXXXX. ",
" .XX... oO++@@@@@@@++OoXXXXXXX. ",
" .XXXX. o#+++@@@@@+++#oXXXXXXX. ",
" .XXXX.o$%###+++++###%$oXXXXXX. ",
" .XXXXXo$$%%%#####%%%$$oXXXXXX. ",
" .XXXXXo$#@O$%%%%%$$@#$oXXXXXX. ",
" .XXXXo&oO@O#$$@O##O@Oo&oXXXXX. ",
" .XXXXo*&ooo###@OOOooo&*o.XXXX. ",
" .XXXXoo*&&&oo#@Ooo&&&*ooXXXXX. ",
" .XXXXo$o***&&ooo&&***o$oXXXXX. ",
" .XXXXo$Oooo**&&&**ooo#$oXXXXX. ",
" .XXXXo$#O@Ooo***ooO@O#$oXXXXX. ",
" .XXXXooo#@###ooo##O@OoooXXXXX. ",
" .XXXX.o&o@O###@O###@o&oXXXXXX. ",
" .XXX. .o&ooOOO@O##oo&oXXXXXXX. ",
" .XXXX.Xo**&ooO@Ooo&**o.XXXXXX. ",
" .XXXXXXXoo**&ooo&**oo ..XXXXX. ",
" .XXXXXXXXXoo*****oo..  ..XXX.  ",
" .XXXXXXXXXXXoooooXXX..  ..X..  ",
" .XXXXXXXXXXXXXXXXXXXX..  .X.   ",
" ..XXXXXXXXXXXXXXXXXXX..   .    ",
"  ..XXXXXXXXXXXXXXXXXX.         ",
"   ...................          ",
"                                "
};
