/* XPM */
static char *result[] = {
/* columns rows colors chars-per-pixel */
"32 32 15 1 ",
"  c black",
". c #4D361B",
"X c #5D4324",
"o c #694D2A",
"O c #7A5C37",
"+ c #40264D",
"@ c #563767",
"# c #644574",
"$ c #9F7324",
"% c #C89745",
"& c #DDAE5E",
"* c #ECB048",
"= c #F7B84A",
"- c #F8BE5E",
"; c #FFCA61",
/* pixels */
"++++++++++++++++++++++++++++++++",
"+++++++######################+++",
"++++++#@@@@@@@@@@@@@@@@@@@@@@#++",
"++++++#@@@#@@@@@@@@@@@@@@@@@@@#+",
"++++++#@@@@@@@@@@@@@@@@#@@@@@@#+",
"++++++#@@@@@@@@@@@@@@@#+#@@@@@#+",
"+++++#==========;;;;;;;;;#@@@@#+",
"+##++=%%%%%%%%%%%%%%%%%%%;@@@@#+",
"+###$%%.................%%;@@@#+",
"+#@$%%.OOOOOOO...OOOOOOO.%%$@@#+",
"+#$%%.XoooXoo.---.ooXoooX.;;$@#+",
"+#$%.oXoooXo.-***-.oXoooXo.;$@#+",
"+#$%.........-* *-.........;$@#+",
"+#$%%%%%%%%%%-* *-%%%%%%%%%%$@#+",
"+#@$$$$$$$$$$-* *-$$$$$$$$$$@@#+",
"+#@$&&&%%%%%%-* *-%%%%%&&&&$@@#+",
"+#@$&........-***-........&$@@#+",
"+#@$%.ooXooXo.---.oXooXoo.&$@@#+",
"+#@$%.ooXooXoo...ooXooXoo.&$@@#+",
"+#@$%.ooXooXoooXoooXooXoo.%$@@#+",
"+#@$%.ooXooXoooXoooXooXoo.%$@@#+",
"+#@$&.....................&$@@#+",
"+#@$&&%%%%%%%%%%%%%%%%%%%&&$@@#+",
"+#$$$$$$$$$$$$$$$$$$$$$$$$$$$@#+",
"+#$-------------------------$@#+",
"+#$$$$$$$$$$$$$$$$$$$$$$$$$$$#++",
"+#@@@@@@@@@@@@@@@@@@@##++##@##++",
"+#@@@@@@@@@@@@@@@@@@@@##++#@#+++",
"+##@@@@@@@@@@@@@@@@@@@##+++#++++",
"++##@@@@@@@@@@@@@@@@@@#+++++++++",
"+++###################++++++++++",
"++++++++++++++++++++++++++++++++"
};
