/* XPM */
static char *result[] = {
/* columns rows colors chars-per-pixel */
"32 32 128 2 ",
"   c #40264D",
".  c #644574",
"X  c #38170A",
"o  c #563767",
"O  c #8B6524",
"+  c #B79457",
"@  c #E7C07C",
"#  c #2B0F06",
"$  c #4A210F",
"%  c #1F2325",
"&  c #391509",
"*  c #592B07",
"=  c #784B1F",
"-  c #8D5F34",
";  c #191D1E",
":  c #8393A6",
">  c #222627",
",  c #2F3435",
"<  c #484D4F",
"1  c #595F61",
"2  c #CCD0DE",
"3  c #141819",
"4  c #6A7A8D",
"5  c #A4A8AE",
"6  c #D6D7D5",
"7  c #C6C9CD",
"8  c #CCC2D1",
"9  c #090C0D",
"0  c #0D1011",
"q  c #101415",
"w  c #060708",
"e  c #0B0E0E",
"r  c #36394A",
"t  c #341D15",
"y  c #4C4958",
"u  c #090B0C",
"i  c #5E697B",
"p  c #ACB3CB",
"a  c #4E5667",
"s  c #3F4354",
"d  c white",
"f  c #130010",
"g  c #303141",
"h  c #DFD9E2",
"j  c #FF00CE",
"k  c #4B012C",
"l  c #292737",
"z  c #6B7789",
"x  c #DEE0EA",
"c  c #C561AB",
"v  c #FF61FF",
"b  c #FF75FF",
"n  c #A2AAB6",
"m  c #EDEEF4",
"M  c #DCDEE9",
"N  c #111415",
"B  c #A20077",
"V  c #FFAAFF",
"C  c #3A3D4E",
"Z  c #B7BAC8",
"A  c #D1D4DC",
"S  c #191E1F",
"D  c #1F2526",
"F  c #9BA1AD",
"G  c #181C1D",
"H  c #7D0050",
"J  c #C60099",
"K  c magenta",
"L  c #FFB7FF",
"P  c #83848E",
"I  c #0E1112",
"U  c #7F7F89",
"Y  c #D6D9D9",
"T  c #62002B",
"R  c #300118",
"E  c #FF71BF",
"W  c #FFA8FF",
"Q  c #ACB4BD",
"!  c #E7E8ED",
"~  c #5C0025",
"^  c #DE009F",
"/  c #8B8C95",
"(  c #D8DAE1",
")  c #B3003A",
"_  c #4C001D",
"`  c #770037",
"'  c #DE0086",
"]  c #FF61F8",
"[  c #FF00F4",
"{  c #FF8EFF",
"}  c #D2D1D5",
"|  c #BCBDC2",
" . c #7E0047",
".. c #A9002D",
"X. c #7F6270",
"o. c #FFA9C5",
"O. c #FF88FA",
"+. c #B698AA",
"@. c #C60092",
"#. c #AB6183",
"$. c #FF92FA",
"%. c #E47194",
"&. c #FF00F5",
"*. c #DC61BC",
"=. c #9A005C",
"-. c #FFAAFB",
";. c #15000B",
":. c #FF57F8",
">. c #FF97FB",
",. c #C3AAB9",
"<. c #FFA2F9",
"1. c #FF41F7",
"2. c #FFCAFD",
"3. c #E58BD1",
"4. c #FF71C0",
"5. c #FF4FF5",
"6. c #FF71F8",
"7. c #FFC7FD",
"8. c #FFADFB",
"9. c #A2487B",
"0. c #AF618D",
"q. c #8E4867",
"w. c #BF86A0",
"e. c #B6488A",
"r. c #CF86B1",
"t. c #D648B6",
"y. c #F08CD3",
"u. c #C40061",
/* pixels */
"                                                                ",
"              . . . . . . . X X X . . . . . . . . . . . .       ",
"            . o o o o o o X O + @ X o o o o o o o o o o o .     ",
"            . o o o . o o # $ $ $ # o o o o o o o o o o o o .   ",
"            . o o o o o % & * = - & % o o o o . o o o o o o .   ",
"            . o o o o ; : > , < 1 1 2 % o o .   . o o o o o .   ",
"          . . o o o o o 3 4 5 6 7 8 % o o .       . o o o o .   ",
"  . .       . . . o o o o ; 9 0 q w o o o o .   . o o o o o .   ",
"  . . . .       . o o o o e r t y u o o o o o . o o o o o o .   ",
"  . o o . . .   . . . o o 3 i r p % o o o o o o o o o o o o .   ",
"  . o o o o .       . o o 3 i r 2 % o o o o o o o o o o o o .   ",
"  . o o o o . . .   . o % i a s 2 d % o o o o o o o o o o o .   ",
"  . o o o o o o .   . f r i g p p h d % o o o o o o o o o o .   ",
"  . o o o o o o .   f j k l s z x p h d % o o o o o o o o o .   ",
"  . o o o o o o . f c v b k r s n m M h d N o o . o o o o o .   ",
"  . o o o o o o f B k k V b k C i Z A S D F G . . . o o o o .   ",
"  . o o o o o f B H J K k v L k k P I U d d Y G . o o o o o .   ",
"  . o o o o f T R H J E K k v W V k r a Q ! d 8 % o o o o o .   ",
"  . o o o o f T ~ R ^ J J K k v k L k l / d ( p % o o o o o .   ",
"  . o o o o f ) _ ` R R ' J ] k [ { b k k } | i 3 o o o o o .   ",
"  . o o o o f  ._ ` ..` R R X.k J [ [ o.O.d +.k % o o o o o .   ",
"  . o o o o f  ._ ` J @.` ` #.k R R k [ [ d $.[ f o o o o o .   ",
"  . o o o .   f  ._ %.&.[ @.*.k =.=.` k k -.[ ;.o o o o o o .   ",
"  . o o o o . f ) _ ` J E :.>.k [ [ J J d ,.k f o o o o o o .   ",
"  . o o o o o f  ._ ` J &.&.] k <.1.[ [ 2.3.J f . o o o o o .   ",
"  . o o o o o f  ._ T =.J 4.] k 5.O.<.6.7.8.J f . . o o o .     ",
"  . o o o o o o f 9._ ` ' J ] k [ :.:.d 3.J f     . . o . .     ",
"  . o o o o o o f  .0.q.w.e.r.k t.y.d 3.J =.f .     . o .       ",
"  . . o o o o o o f  ._ T  .0.k =.u.=.=.` f . .       .         ",
"    . . o o o o o o f f f f f f f f f f f o .                   ",
"      . . . . . . . . . . . . . . . . . . .                     ",
"                                                                "
};
