/* XPM */
static char *result[] = {
/* columns rows colors chars-per-pixel */
"32 32 110 2 ",
"   c #40264D",
".  c #644574",
"X  c #38170A",
"o  c #563767",
"O  c #2B0F06",
"+  c #6B4116",
"@  c #B79457",
"#  c #E7C07C",
"$  c #391509",
"%  c #1F2325",
"&  c #592B07",
"*  c #784B1F",
"=  c #8D5F34",
"-  c #ACB3CB",
";  c #34383A",
":  c #9B7533",
">  c #595F61",
",  c #CCC2D1",
"<  c #141819",
"1  c #8393A6",
"2  c #A9ACB0",
"3  c #484D4F",
"4  c #A4A8AE",
"5  c white",
"6  c #596375",
"7  c #808C8B",
"8  c #CACFC6",
"9  c #0C0F10",
"0  c #1C2122",
"q  c #23282A",
"w  c #38231B",
"e  c #7B5E40",
"r  c #3E2821",
"t  c #2B2A3A",
"y  c #52423B",
"u  c #5E697B",
"i  c #393D4F",
"p  c #303141",
"a  c #CCE8F3",
"s  c #636D7E",
"d  c #797D94",
"f  c #E4DFE6",
"g  c #001403",
"h  c #474C5D",
"j  c #3D4152",
"k  c #00C43F",
"l  c #00481C",
"z  c #323847",
"x  c #2F2F3E",
"c  c #5E6779",
"v  c #8897AA",
"b  c #009230",
"n  c #00EE00",
"m  c #242532",
"M  c #3C4351",
"N  c #002308",
"B  c #DFF0F8",
"V  c #003910",
"C  c #002A0A",
"Z  c #00BA18",
"A  c #13E356",
"S  c #3CFF00",
"D  c #CCD0DE",
"F  c #EEF7FB",
"G  c #006200",
"H  c #007126",
"J  c #1EFF66",
"K  c #9EA4AF",
"L  c #D3D6E3",
"P  c #009310",
"I  c #00C200",
"U  c #8D909A",
"Y  c #DEE0E3",
"T  c #F4F2F5",
"R  c #004414",
"E  c #006C20",
"W  c #26F700",
"Q  c #618E72",
"!  c #C9D8CF",
"~  c #B8BBC6",
"^  c #005D0A",
"/  c #00B900",
"(  c #61DA88",
")  c #9AE8B3",
"_  c #789E87",
"`  c #00DA1F",
"'  c #00E000",
"]  c #78E099",
"[  c #C9F2D6",
"{  c #007500",
"}  c #00531A",
"|  c #61BB7F",
" . c #9AD4AD",
".. c #78C591",
"X. c #C9E8D3",
"o. c #001705",
"O. c #74FFA0",
"+. c #CDF9DB",
"@. c #ABEBC0",
"#. c #004E08",
"$. c #002D0A",
"%. c #003D0E",
"&. c #005113",
"*. c #025E1A",
"=. c #9BBFA4",
"-. c #9ABAA1",
";. c #009800",
":. c #005819",
">. c #004A14",
",. c #9AB7A2",
/* pixels */
"                                                                ",
"              . . . . . . . . X X X . . . . . . . . . . .       ",
"            . o o o o o o o O + @ # X o o o o o o o o o o .     ",
"            . o o o . o o o O $ $ $ O o o o o o o o o o o o .   ",
"            . o o o o o o % $ & * = $ % o o o . o o o o o o .   ",
"            . o o o o o % - ; & & : > , % o .   . o o o o o .   ",
"          . . o o o o o < 1 2 ; 3 > 4 5 % .       . o o o o .   ",
"  . .       . . . o o o o < 6 7 8 4 5 % o o .   . o o o o o .   ",
"  . . . .       . o o o o o 9 < 0 q 9 o o o o . o o o o o o .   ",
"  . o o . . .   . . . o o o < w e r < o o o o o o o o o o o .   ",
"  . o o o o .       . o o o < t y , % o o o o o o o o o o o .   ",
"  . o o o o . . .   . o o < u t 1 - 5 % o o o o o o o o o o .   ",
"  . o o o o o o .   . . < u i p 1 a , 5 % o o o o o o o o o .   ",
"  . o o o o o o .     < s i t 1 d 5 - f 5 % o o o o o o o o .   ",
"  . o o o o o o . . g q h j t 1 d - 5 , f 5 % o . o o o o o .   ",
"  . o o o o o o o g k l z x c v d - 5 5 f f 5 % . . o o o o .   ",
"  . o o o o o o o g b n l m M c v d a 5 5 f 5 % . o o o o o .   ",
"  . o o o o o o g N l b k l l l l s d B 5 , f 5 % o o o o o .   ",
"  . o o o o o o g V C l b Z k A S l s D F - f 5 % o o o o o .   ",
"  . o o o o o o g G C H l l l b k J l K 5 - L 5 % o o o o o .   ",
"  . o o o o o o g V C P b H I l b A l U Y 1 L T % o o o o o .   ",
"  . o o o o . o g R C E k b H l b k W Q ! s ~ ! % o o o o o .   ",
"  . o o o .   . g ^ C / b k b H l l b ( ) l _ 5 g o o o o o .   ",
"  . o o o o . o g R C E b ` k b ' H l Q ! k ] [ g o o o o o .   ",
"  . o o o o o o g { C } b b A k b b b |  .l _ 5 g o o o o o .   ",
"  . o o o o o o g R N } E Z k A J k ` ( ) b ..X.g . o o o .     ",
"  . o o o o o o g V o.C } E b n k A J O.+.W @.5 g . . o . .     ",
"  . o o o o o o g #.N o.N C $.%.%.&.*.=.&.&.-.5 g   . o .       ",
"  . . o o o o o o g V G V R { ^ R ;.:.>.>.,.5 g       .         ",
"    . . o o o o o o g g g g g g g g g g g g g                   ",
"      . . . . . . . . . . . . . . . . . . .                     ",
"                                                                "
};
