/* XPM */
static char *result[] = {
/* columns rows colors chars-per-pixel */
"32 32 12 1 ",
"  c #40264D",
". c #644574",
"X c #563767",
"o c #2A304E",
"O c #94A0BA",
"+ c #FCFEFE",
"@ c #667291",
"# c #1C1A30",
"$ c #1C121B",
"% c #5E2C29",
"& c #FDA216",
"* c #FC5003",
/* pixels */
"                                ",
"       ......................   ",
"      .XXXXXXXXXXXXXXXXXXXXXX.  ",
"      .XXX.XXXXXXXXXXXXXXXXXXX. ",
"      .XXXXXXXXXXXXXXXX.XXXXXX. ",
"      .XXXXXXXXXXXXXXX. .XXXXX. ",
"     ..XXXXXXXooooooX.   .XXXX. ",
" ..   ...XXXooO+++++oo. .XXXXX. ",
" ....   .XXoOO++++++++ooXXXXXX. ",
" .XX... ..oO@@@@@@@+++++oXXXXX. ",
" .XXXX.   o@@@@@@@@@+++++oXXXX. ",
" .XXXX...oo@@@@oo@@@++++++oXXX. ",
" .XXXXXX.o+@@@@++o@@@++++++oXX. ",
" .XXXXXX.o+@@@@++#@@@+++++++oX. ",
" .XXXXXXo@#@$$@###@@@+++@+++oX. ",
" .XXXXXXo@@$$$@@@@@@@+++@ooooX. ",
" .XXXXXXo@@$$$@@@@@@@+++OoXXXX. ",
" .XXXXXXo@@$oo@@@@@@+++++oXXXX. ",
" .XXXXXXXo@@@@@@@@@@++++oXXXXX. ",
" .XXXXXXXo@@OO+@@@@+++++oXXXXX. ",
" .XXXXXXXXoOOO+++++++++oXXXXXX. ",
" .XXXX.XXXXoOOO++++++%%ooXXXXX. ",
" .XXX. .XXo@%OOOO%%%%O+++oXXXX. ",
" .XXXX.XXXo@@%%%%O++++++++oXXX. ",
" .XXXXXXXo@@O&&*+++++++++++oXX. ",
" .XXXXXXXo@@O&&*++++++@++++oX.  ",
" .XXXXXXXo@@O&&*++++++@o+++o..  ",
" .XXXXXXXXoo@OO+++++++OooooX.   ",
" ..XXXXXXXo@@@OO+++++++o   .    ",
"  ..XXXXXXo@@@@@o++++++o        ",
"   .......o@@@@o.o+++++o        ",
"          o@@@@o  o++++o        "
};
