/* XPM */
static char *result[] = {
/* columns rows colors chars-per-pixel */
"32 32 10 1 ",
"  c #40264D",
". c #644574",
"X c #563767",
"o c #222034",
"O c #9DB3BF",
"+ c #626F8A",
"@ c #CBDBFC",
"# c #5FCDE4",
"$ c #696A6A",
"% c #847E87",
/* pixels */
"                                ",
"       ......................   ",
"      .XXXXooooooooooooXXXXXX.  ",
"      .XXXoOOOOOOOOOO++oXXXXXX. ",
"      .XXoOOOOOOOOOOOO++oXXXXX. ",
"      .XXoOOOOOOOOOOOOO+oXXXXX. ",
"     ..XXoOXX+OOOXX+OOO+o.XXXX. ",
" ..   ...oOXXX+OXXX+OoO+oXXXXX. ",
" ...o   .oOOXX+OXX+OOo++oXXXXX. ",
" .Xo@o. .oOOOOOOOOOOOo++oXXXXX. ",
" .Xo@o.  oOOOOOOOOOOOo++oXXXXX. ",
" .o#@o... oOOXOXOOOOo$ooXXXXXX. ",
" .o#@oXX. oOOXOXOOOOooXXXXXXXX. ",
" .o##oXX. o+OOOOOOO+oXXXXXXXXX. ",
" o##oXXX..oO+OOOOO+OoXXX.XXXXX. ",
" o#@oXXXX..oooooooooXXX...XXXX. ",
" o#@oXXXXX.. o%%%oXXXXXX.XXXXX. ",
" .o@oXXooXoooooooooooXooXXXXXX. ",
" .o##ooOOoOOOO+OOOOO+o+OoXXXXX. ",
" .XooXoO+o++++oOo++++o+OoXXXXX. ",
" .oOOoO+oXooooOOOoooo+OOoXXXXX. ",
" .o++++oXoOOOO+OOOOO+oOoXXXXXX. ",
" .Xoooo.Xo++++oO+++++o+oXXXXXX. ",
" .XXXX.XXXooooOOOoooo$OOoXXXXX. ",
" .XXXXXXXo%%%%+OOOOO+o+OoXXXXX. ",
" .XXXXXXXo++++oOo++++o++o.XXX.  ",
" .XXXXXXXXooooXoXoooo.oo ..X..  ",
" .XXXXXXXXoO+oXXXXoO+o..  .X.   ",
" ..XXXXXXXoO+oXXXXoO+o..   .    ",
"  ..XXXXXoO+oXXXXoO+oX.         ",
"   ......oO+o....oO+o.          ",
"          oO+o    oO+o          "
};
