/* XPM */
static char *result[] = {
/* columns rows colors chars-per-pixel */
"32 32 12 1 ",
"  c #40264D",
". c #644574",
"X c #563767",
"o c #2A304E",
"O c #FCFEFE",
"+ c #94A0BA",
"@ c #667291",
"# c #1C1A30",
"$ c #1C121B",
"% c #5E2C29",
"& c #FC5003",
"* c #FDA216",
/* pixels */
"                                ",
"       ......................   ",
"      .XXXXXXXXXXXXXXXXXXXXXX.  ",
"      .XXX.XXXXXXXXXXXXXXXXXXX. ",
"      .XXXXXXXXXXXXXXXX.XXXXXX. ",
"      .XXXXXXXXXXXXXXX. .XXXXX. ",
"     ..XXXXXooooooXXX.   .XXXX. ",
" ..   ...XooOOOOO+ooXX. .XXXXX. ",
" ....   ooOOOOOOOO++oXX.XXXXXX. ",
" .XX...oOOOOO@@@@@@@+oXXXXXXXX. ",
" .XXXXoOOOOO@@@@@@@@@oXXXXXXXX. ",
" .XXXoOOOOOO@@@oo@@@@ooXXXXXXX. ",
" .XXoOOOOOO@@@oOO@@@@OoXXXXXXX. ",
" .XoOOOOOOO@@@#OO@@@@OoXXXXXXX. ",
" .XoOOO@OOO@@@###@$$@#@o.XXXXX. ",
" .Xoooo@OOO@@@@@@@$$$@@o..XXXX. ",
" .XXXXo+OOO@@@@@@@$$$@@o.XXXXX. ",
" .XXXXoOOOOO@@@@@@oo$@@oXXXXXX. ",
" .XXXXXoOOOO@@@@@@@@@@oXXXXXXX. ",
" .XXXXXoOOOOO@@@@O++@@oXXXXXXX. ",
" .XXXXXXoOOOOOOOOO+++oXXXXXXXX. ",
" .XXXX.oo%%OOOOOO+++o.XXXXXXXX. ",
" .XXX.oOOO+%%%%++++%@o.XXXXXXX. ",
" .XXXoOOOOOOOO+%%%%@@o..XXXXXX. ",
" .XXoOOOOOOOOOOO&**+@@o..XXXXX. ",
" .XXoOOOO@OOOOOO&**+@@o ..XXX.  ",
" .XXoOOOo@OOOOOO&**+@@o  ..X..  ",
" .XXXoooo+OOOOOOO++@oo..  .X.   ",
" ..XXXXXoOOOOOOO++@@@o..   .    ",
"  ..XXXXoOOOOOOo@@@@@o.         ",
"   .....oOOOOOo.o@@@@o          ",
"        oOOOOo  o@@@@o          "
};
