/* XPM */
static char *result[] = {
/* columns rows colors chars-per-pixel */
"32 32 3 1 ",
"  c #40264D",
". c #563767",
"X c #644574",
/* pixels */
"                                ",
"       XXXXXXXXXXXXXXXXXXXXXX   ",
"      X......................X  ",
"      X...X...................X ",
"      X................X......X ",
"      X...............X X.....X ",
"     XX..............X   X....X ",
" XX   XXX.............X X.....X ",
" XXXX   X..............X......X ",
" X..XXX XXX...................X ",
" X....X   X...................X ",
" X....XXX X...................X ",
" X......X XX..................X ",
" X......X  XX.................X ",
" X......XX  XX..........X.....X ",
" X.......XX  XXX.......XXX....X ",
" X........XX   XX.......X.....X ",
" X.........XXX  XX............X ",
" X...........XX  XX...........X ",
" X............XX  XX..........X ",
" X.............XX  XX.........X ",
" X....X.........XX  XX........X ",
" X...X X.........XX  XX.......X ",
" X....X...........XX  XX......X ",
" X.................XX  XX.....X ",
" X..................XX  XX...X  ",
" X...................XX  XX.XX  ",
" X....................XX  X.X   ",
" XX...................XX   X    ",
"  XX..................X         ",
"   XXXXXXXXXXXXXXXXXXX          ",
"                                "
};
