/* XPM */
static char *result[] = {
/* columns rows colors chars-per-pixel */
"32 32 61 1 ",
"  c #40264D",
". c #644574",
"X c #563767",
"o c #120000",
"O c #3D0000",
"+ c #AE6225",
"@ c #FF0A00",
"# c #010000",
"$ c #823A00",
"% c #070000",
"& c #FF5F00",
"* c #060100",
"= c #804013",
"- c #610000",
"; c #5E1600",
": c #D80F00",
"> c #4F1F04",
", c #EBD4AD",
"< c #D7C176",
"1 c #341200",
"2 c #860000",
"3 c #D80000",
"4 c #C48B36",
"5 c #562200",
"6 c #391001",
"7 c #D2CC5C",
"8 c #D90000",
"9 c #1F0600",
"0 c #220000",
"q c #B69536",
"w c #F1EAAB",
"e c #030000",
"r c #100100",
"t c #0A0100",
"y c #FBF6D5",
"u c #533707",
"i c #BF8045",
"p c #0D0100",
"a c #D3C35F",
"s c #BF0000",
"d c #5E2A0C",
"f c #C5BE34",
"g c #C6A52B",
"h c #0D0000",
"j c #DC0700",
"k c #73550C",
"l c #3C2703",
"z c #0C0100",
"x c #806112",
"c c #523C04",
"v c #160400",
"b c #BD682B",
"n c #060000",
"m c #5F2500",
"M c #3A1503",
"N c #894519",
"B c #040100",
"V c #281900",
"C c #130A00",
"Z c #9C6B19",
"A c #0D0700",
/* pixels */
"                                ",
"       ......................   ",
"      .XXXXXXXXXXXXoOXXXXXXXX.  ",
"      .XXX.XXXXXXXo+@OXXXXXXXX. ",
"      .XXXXXXXXXX#+$+oX.XXXXXX. ",
"      .XXXXXXXXX%@&$$+o .XXXXX. ",
"     ..XXXXXXXX*=-@;$$o  .XXXX. ",
" ..   ...XXXXX%:>-@,;$o .XXXXX. ",
" ....   .XXXXX%:-,-<;-1.XXXXXX. ",
" .XX... ...XX%23-,<<-@1XXXXXXX. ",
" .XXXX.  O.XX#o2-<<45<51XXXXXX. ",
" .XXXX..O&OXX#6o74<45<5<1XXXXX. ",
" .XXXXXXO8@OX#907-44545-1XXXXX. ",
" .XXXXX*,8-,#69q-&-44w-@-1XXXX. ",
" .XXXXX*o<5<e9rt<-@-4y7-<51XXX. ",
" .XXXXX%:-<4eruti5-<5y75-<1XXX. ",
" .XXXXX*o-<4paosd-<@-wf-@41XXX. ",
" .XXXXX#9@-4pgo2hj-8-wf541XXXX. ",
" .XXXXX#s885agkolh+-+$7551XXXX. ",
" .XXXX#rz$+-gxkcevv0+0y5<1XXXX. ",
" .XXXX%3rr-&-ucpbe9o90y5=1XXXX. ",
" .XXXnsd9pm-wolp=>o39ewk*XXXXX. ",
" .XXX*MM=os-g@oN=>o2egg9%XXXXX. ",
" .XXXXBBt=osok5Nd>poaVk93%XXXX. ",
" .XXXXXXB>=ooVktM>pagp992%XXXX. ",
" .XXXXXX*Md669cCBMtZkk##%.XXX.  ",
" .XXXXXX*Mvv93%XX*uulA.  ..X..  ",
" .XXXXXXX*C932%XXXCAAX..  .X.   ",
" ..XXXXXXXX*%%XXXXXXXX..   .    ",
"  ..XXXXXXXXXXXXXXXXXX.         ",
"   ...................          ",
"                                "
};
