/* XPM */
static char *result[] = {
/* columns rows colors chars-per-pixel */
"32 32 59 1 ",
"  c #40264D",
". c #644574",
"X c #563767",
"o c #460046",
"O c white",
"+ c #FFDBFF",
"@ c #FFDFFF",
"# c #290029",
"$ c #FF82FF",
"% c #FF44FF",
"& c #DC3FDC",
"* c #3B003B",
"= c #FFDAFF",
"- c magenta",
"; c #953195",
": c #951D95",
"> c #650065",
", c #560056",
"< c #DC31DC",
"1 c #7D0F7D",
"2 c #D71ED7",
"3 c #B509B5",
"4 c #D10FD1",
"5 c #FF9DFF",
"6 c #D731D7",
"7 c #FF9EFF",
"8 c #FF5EFF",
"9 c #FFCBFF",
"0 c #DC1DDC",
"q c #D712D7",
"w c #640064",
"e c #F231F2",
"r c #F252F2",
"t c #AC00AC",
"y c #E400E4",
"u c #240024",
"i c #9F009F",
"p c #E70FE7",
"a c #3E003E",
"s c #F21EF2",
"d c #D727D7",
"f c #F232F2",
"g c #4E064E",
"h c #680068",
"j c #3A1700",
"k c #220C00",
"l c #7C5832",
"z c #9E7A54",
"x c #190019",
"c c #140400",
"v c #BD956B",
"b c #57330E",
"n c #4B2601",
"m c #230C00",
"M c #0D0300",
"N c #2C1300",
"B c #331906",
"V c #140600",
"C c #482C14",
/* pixels */
"                                ",
"       ......................   ",
"      .XXXXXXXXXXXXXXXXXXXXXX.  ",
"      .XXX.XXXXXXXXXXXXXXXXXXX. ",
"      .XXXXXXXXooooXXXX.XXXXXX. ",
"      .XXXXXXXoOO+@oXX. .XXXXX. ",
"     ..XXXXXXXoOO+@oX.   .XXXX. ",
" ..   ...XXXX#+++$$%oX. .XXXXX. ",
" ....   .XXX#&*$$=%-%oX.XXXXXX. ",
" .XX... ...X#;:**%%>,oXXXXXXXX. ",
" .XXXX.   .X#<:11*,23*XXXXXXXX. ",
" .XXXX... oo*;:44*256oXXXXXXXX. ",
" .XXXXXXoo@+$*:11*786oXXXXXXXX. ",
" .XXXXXo9+$$>*011*866oXXXXXXXX. ",
" .XXXX#***>>q*1ww*>6eoXX.XXXXX. ",
" .XXXX#;:1*qr*1ww*9>toXoooXXXX. ",
" .Xooo>*01*86*4ww*7>y>#9+$ooXX. ",
" .oOO+O7*1*56u1**97>t*<*$=%%iX. ",
" .oOO+O7*1*56u1**97>t*<*$=%%iX. ",
" o7++$$>p*:*tuw**786t*;1*>>>>*. ",
" #>>>>>3tu0*yua**;86*;01*2ss3o. ",
" #dffqqrtug*tuh**:6eu:1*7866oX. ",
" #7886e6tuajjgauu:1tugw*86ttoX. ",
" #:66jjjkaklzjjgg41wuajjjjooXX. ",
" xgcclzvjakbjlzjjjjjujlzbnmmXX. ",
" .MNNBbljkBjzjjllbkljljbNVXXX.  ",
" .XVVVNjbCkkljnBBkjbkBBVV..X..  ",
" .XXXXVVVBCkNBkkkblkCVV.  .X.   ",
" ..XXXXXXVVVVVBCCkBVVX..   .    ",
"  ..XXXXXVVVVVBCCkBVVX.         ",
"   ...........VVVVV...          ",
"                                "
};
