/* XPM */
static char *result[] = {
/* columns rows colors chars-per-pixel */
"32 32 90 1 ",
"  c #40264D",
". c #644574",
"X c #563767",
"o c #5E005E",
"O c #350035",
"+ c #1A0D07",
"@ c #FFB0FF",
"# c #FFD5FF",
"$ c #776156",
"% c #500050",
"& c #FF70FF",
"* c #DF3ADF",
"= c #900090",
"- c #891389",
"; c #310031",
": c #700070",
"> c #37271F",
", c #211812",
"< c #0C0602",
"1 c #3F003F",
"2 c #3A2112",
"3 c #AB9A8C",
"4 c #59463B",
"5 c #8A0F8A",
"6 c #640064",
"7 c #180018",
"8 c #FF27FF",
"9 c #271B15",
"0 c #390039",
"q c #FF7EFF",
"w c #893A89",
"e c #150015",
"r c #CC1ACC",
"t c #2B002B",
"y c #3D003D",
"u c #8B7669",
"i c #C952C9",
"p c #5D075D",
"a c #320032",
"s c #120012",
"d c #4E004E",
"f c #7E007E",
"g c #8A208A",
"h c #130C0A",
"j c #4B004B",
"k c #C615C6",
"l c #1F001F",
"z c #2A1B14",
"x c #050301",
"c c #513B30",
"v c #280028",
"b c #E545E5",
"n c #B70CB7",
"m c #413026",
"M c #FF41FF",
"N c #560056",
"B c #BC0EBC",
"V c #0C0502",
"C c #211711",
"Z c #1B0E07",
"A c #854569",
"S c #450045",
"D c #200020",
"F c #360036",
"G c #650065",
"H c #836A5A",
"J c #1D1112",
"K c #70594C",
"L c #FF37FF",
"P c #4D3B32",
"I c #34261F",
"U c #FF5DFF",
"Y c #300030",
"T c #160B05",
"R c #3A003A",
"E c #22120A",
"W c #170E0B",
"Q c #0E0702",
"! c #740074",
"~ c #660866",
"^ c #080301",
"/ c #110804",
"( c #080501",
") c #060201",
"_ c #050101",
"` c #0E0704",
"' c #070201",
"] c #150B06",
"[ c #030100",
"{ c #1B0E11",
/* pixels */
"                                ",
"       ......................   ",
"      .XXXXXXXXXXXXXXXXXXXXXX.  ",
"      .XXX.XXXXXXXXXXXXXXXXXXX. ",
"      .XXXXXXXXXXoO+XXX.XXXXXX. ",
"      .XXXXXXXXXo@#$%X. .XXXXX. ",
"     ..XXXXXXXXo@&*=-;   .XXXX. ",
" ..   ...XXXXXo&:*$>,<. .XXXXX. ",
" ....   .XXXXXo&:*$>,<X.XXXXXX. ",
" .XX... ..oo112334>5,67XXXXXXX. ",
" .XXXX.  o#@&*%84900Oqwe;;XXXX. ",
" .XXXX...1@&*r4%ty8ui-pa55sXXX. ",
" .XXXXXoo&:drf%#@&%4gphjkk5lXX. ",
" .XXXXo%%:99fz:@&r04x,cvbbn5;X. ",
" .XXXo@::mMmzzN&BfNVmCZA00SpDX. ",
" .XXo@&**Vm%FFBBfy3&:G$&HHaJ5;. ",
" .XX1&*ff9%@&*%fyKuu@LGPPP5II<. ",
" .XX1rf99zF**44ymMuKUkYPTTaa5R. ",
" .XE3%WzzVZ%Fr9QzmV>>!vZKK~9lX. ",
" .E3*uV^^333uQQ/()hhhtr4VV,,5<. ",
" .Euu4mVVrmrmmW_. `']r4V,,x[C'. ",
" .EmmzzWW``m9W_X..  <PPIpp>C'X. ",
" .X``__((XX'((XXX..  <>>{{C'XX. ",
" .XXXX.XXXXXXXXXXX..  <<'''XXX. ",
" .XXXXXXXXXXXXXXXXX..  ..XXXXX. ",
" .XXXXXXXXXXXXXXXXXX..  ..XXX.  ",
" .XXXXXXXXXXXXXXXXXXX..  ..X..  ",
" .XXXXXXXXXXXXXXXXXXXX..  .X.   ",
" ..XXXXXXXXXXXXXXXXXXX..   .    ",
"  ..XXXXXXXXXXXXXXXXXX.         ",
"   ...................          ",
"                                "
};
