/* XPM */
static char *ecd6c273b14e4fe4cdd0deecfcd0d241mZPV9QC9njAY8VSX[] = {
/* columns rows colors chars-per-pixel */
"64 64 256 2 ",
"   c #020101",
".  c #0B0003",
"X  c #03010A",
"o  c #0B020A",
"O  c #0B0B0C",
"+  c #050908",
"@  c #130104",
"#  c #1B0103",
"$  c #14020B",
"%  c #1C010C",
"&  c #140A0E",
"*  c #1B090D",
"=  c #020313",
"-  c #060B14",
";  c #150411",
":  c #1C0211",
">  c #140A12",
",  c #1B0B13",
"<  c #190F19",
"1  c #081519",
"2  c #191819",
"3  c #0E100F",
"4  c #230003",
"5  c #2C0002",
"6  c #24000C",
"7  c #2B000D",
"8  c #330002",
"9  c #3B0001",
"0  c #32000D",
"q  c #3B020E",
"w  c #240112",
"e  c #2B0012",
"r  c #260918",
"t  c #330113",
"y  c #3B0115",
"u  c #3D011A",
"i  c #34051A",
"p  c #25171C",
"a  c #351918",
"s  c #1B211F",
"d  c #3D231D",
"f  c #091A27",
"g  c #151C28",
"h  c #171E36",
"j  c #3E0322",
"k  c #281B25",
"l  c #391C2A",
"z  c #381826",
"x  c #2C1E32",
"c  c #13232B",
"v  c #1B2329",
"b  c #0A2939",
"n  c #142534",
"m  c #1A2433",
"M  c #132B34",
"N  c #1B2A36",
"B  c #142A3C",
"V  c #18273C",
"C  c #183239",
"Z  c #0C2932",
"A  c #2C2B2C",
"S  c #282528",
"D  c #34282D",
"F  c #252739",
"G  c #352D31",
"H  c #372937",
"J  c #2D3432",
"K  c #2D3A35",
"L  c #343535",
"P  c #323937",
"I  c #3B363A",
"U  c #353B3A",
"Y  c #3B3B3C",
"T  c #393738",
"R  c #2B332E",
"E  c #430101",
"W  c #4B0208",
"Q  c #560308",
"!  c #430014",
"~  c #44011C",
"^  c #4A0319",
"/  c #570517",
"(  c #4F161D",
")  c #650406",
"_  c #67111A",
"`  c #78121B",
"'  c #770915",
"]  c #6F231D",
"[  c #440421",
"{  c #4C0423",
"}  c #4B0828",
"|  c #530425",
" . c #55042B",
".. c #530C2A",
"X. c #59092C",
"o. c #461624",
"O. c #561727",
"+. c #5A1331",
"@. c #4F1630",
"#. c #670B2B",
"$. c #78092B",
"%. c #671B27",
"&. c #7B1927",
"*. c #650C32",
"=. c #6D0C35",
"-. c #6E0C3A",
";. c #6A0636",
":. c #760634",
">. c #7B0434",
",. c #730C35",
"<. c #7A0A35",
"1. c #74063A",
"2. c #7C063A",
"3. c #750B3A",
"4. c #7B0A3B",
"5. c #631234",
"6. c #6B1234",
"7. c #6D1339",
"8. c #64193A",
"9. c #72123A",
"0. c #741239",
"q. c #40393C",
"w. c #422837",
"e. c #732A34",
"r. c #3B413F",
"t. c #0B2B41",
"y. c #172A43",
"u. c #193649",
"i. c #12364E",
"p. c #3C3D41",
"a. c #27374D",
"s. c #760B42",
"d. c #7C0842",
"f. c #6C1641",
"g. c #701042",
"h. c #423E42",
"j. c #6E3943",
"k. c #1A4255",
"l. c #3C4241",
"z. c #27485D",
"x. c #3D515C",
"c. c #2B4762",
"v. c #355B77",
"b. c #32506B",
"n. c #3B667C",
"m. c #1E506B",
"M. c #526874",
"N. c #515B60",
"B. c #8A0618",
"V. c #94041D",
"C. c #9B151C",
"Z. c #86151A",
"A. c #BD140E",
"S. c #B9180D",
"D. c #A90917",
"F. c #AC1A1C",
"G. c #A8131B",
"H. c #BC1414",
"J. c #B5151C",
"K. c #BC141B",
"L. c #B71818",
"P. c #BB0E13",
"I. c #AA221F",
"U. c #8B0A25",
"Y. c #84042B",
"T. c #880827",
"R. c #950622",
"E. c #930A26",
"W. c #980927",
"Q. c #881B26",
"!. c #971B26",
"~. c #81063B",
"^. c #83093C",
"/. c #840733",
"(. c #941D32",
"). c #A50D24",
"_. c #AA0E28",
"`. c #B50D23",
"'. c #AB1323",
"]. c #AC1B24",
"[. c #A61827",
"{. c #B41424",
"}. c #BB1424",
"|. c #B51827",
" X c #AE1B32",
".X c #982226",
"XX c #912735",
"oX c #B32126",
"OX c #A72229",
"+X c #902118",
"@X c #CD0E04",
"#X c #CC0E0C",
"$X c #C60E08",
"%X c #D30C0A",
"&X c #CC1104",
"*X c #C4130C",
"=X c #C9110C",
"-X c #C31307",
";X c #C50F13",
":X c #CA0F12",
">X c #C70D1A",
",X c #D30C17",
"<X c #C31313",
"1X c #C91113",
"2X c #C3131B",
"3X c #C61519",
"4X c #D21204",
"5X c #C71523",
"6X c #CD0E20",
"7X c #820544",
"8X c #3C688B",
"9X c #466A87",
"0X c #4A7186",
"qX c #4B7B96",
"wX c #4C7C9A",
"eX c #48759A",
"rX c #557A99",
"tX c #556F85",
"yX c #647891",
"uX c #4B7CA2",
"iX c #4779A0",
"pX c #547CA4",
"aX c #627FA1",
"sX c #4E819A",
"dX c #54829E",
"fX c #4D81A4",
"gX c #5885A9",
"hX c #5B92A8",
"jX c #6896B5",
"kX c #6C8089",
"lX c #759BC3",
"zX c #6DABC8",
"xX c #77A8C4",
"cX c #8AA7B3",
"vX c #94BDD7",
"bX c #89B7CD",
"nX c #95BFE2",
"mX c #98C2CD",
"MX c #8AC2D3",
"NX c #9CC6DA",
"BX c #94CBDB",
"VX c #9CCDDB",
"CX c #97C7D7",
"ZX c #A4C9D3",
"AX c #AFCDD7",
"SX c #9AC8E4",
"DX c #93D0E3",
"FX c #A1CBE9",
"GX c #A7CFEC",
"HX c #C6D3DA",
"JX c #D1ECF4",
"KX c #EBFEFF",
"LX c #E3FBFE",
"PX c #F4FEFF",
"IX c #F9FDFF",
"UX c #C7DBE2",
/* pixels */
"                                    + + + X X o o o = X + + . # * * % % 4 % # @ @ . . o X X X X               +     X     X .   ",
"                                            X ; ; : $ % @ # 4 4 4 4 4 4 6 4 4 6 6 % $ . X o X X X                         .   . ",
"                                      . o . O > % 7 0 q 8 8 8 8 9 9 9 5 5 4 # # @ @ @ @ % : w $ @ .                             ",
"                                +   @ % * % @ @ 5 8 9 E W ) ' Z.` ` ` ` _ ( W 9 8 5 5 4 4 4 6 4 @ . . . .                       ",
"                                X   @ 7 7 4 4 5 9 Q ' C.].].G.D.F.I.I.oXoXF.F.G.Z.' ) E 5 4 @ # # % @ @ .   .                   ",
"                                  $ w 4 4 8 E ) XXI.F.L.P.H.3X3XA.A.*X;X=X1X:X;X2XF.G.Z.) E 5 4 # % % $ . .   .                 ",
"                                . : 6 # 8 Q ` C.G.F.H.3X3X:X,X,X*X1X<X#X#X,X,X,X>X2X|.oX.XZ.' E 7 : , ; $ .                     ",
"                              . $ % & # W Q.].5XA.*X*X<X=X:X*X<XH.L.K.K.K.J.J.'.].[.!..XXXXXQ.6.w > > > > O X                   ",
"                            . @ : : $ 0 _ !.6X,X=X=X<X*X*XS.F.I.[.(.XX&._ ( O.o.d D o.D l w.o.l k S g v v g 1 1 - X X   X + X   ",
"                          . . $ : : % q ` J.,X%X%X*X*X<XH.F.+X] %.O.o.o.S s R C Z M M C V F F V V m m m m N F F c c - X = X = X ",
"                            . $ ; : 7 / C.K.,X,X=X*X*XL.]..X] d S c c N C Z Z Z b b Z B t.y.V V V n M n c N c c m F N g 1 = = = ",
"                        . . $ $ ; 6 y _ !.>X,X%X=X*XL.F..X_ d s C Z Z k.k.z.m.n.n.0X0X0XtXM.yXrXkXM.M.M.N.x.a.N N f C V h f = = ",
"                          . @ $ $ 6 ^ Z.'.K.1X1X1X3XI.C.#.o.v c f C tXcXCXVXCXVXVXVXVXVXZXAXJXLXPXKXKXKXLXJXHXAXM.a.n c h V = = ",
".                       . . @ % % t / U.G.L.<X*X<XL..X&.[ g n u.M.0XbXvXCXCXvXNXBXBXmXvXmXAXJXLXPXPXPXPXPXPXKXKXJXcXl.c m n n = ",
"                    . . . o $ % 4 u ' Z.C.F.S.<X1XK.C.O.x h a.c.eXdXCXFXSXFXnXFXVXSXZXNXVXGXJXLXIXIXPXPXIXPXPXPXPXUXkXN C f y.- ",
".                 . . . @ @ # % % ~ $.U.G.F.L.H.<XL.Q.( h y.a.b.wXgXSXSXnXFXnXFXSXNXSXFXNXCXCXZXHXHXHXUXJXLXLXKXJXAXvXB M f u.f ",
"          o 3 O & @ # 4 @ # 6 4 % o.$.B.F.2XH.<XK.].Q.o.F B y.9XaXpXlXSXGXSXnXSXSXnXSXBXNXBXNXNXvXZXZXZXmXVXmXCXNXmXvXc.B M B c ",
". .   + @ # # @ 4 4 8 q 4 4 5 7 : } $.R.{.2X;X3XK.].&.@.F B u.9XpXpXgXjXnXSXGXDXSXSXBXBXSXCXBXBXZXNXCXmXCXCXVXCXSXSXvXz.b n N c ",
"o     * 5 9 9 E Q W Q Q 8 # # % e +.:.V.J.2X;X<XL.].&.o.x B i.8XpXrXsXsXhXxXMXMXMXBXBXBXCXCXBXBXDXBXBXBXDXDXSXFXFXbXjXc.y.n n v ",
"X . o 4 8 Q ' Z.!.E.(.XXO.0 e w j +.<.V.J.2X*X<XH.I.Q.( g B i.n.wXwXqXsXqXfXhXjXxXbXMXCXBXBXSXFXDXDXDXBXBXBXbXbXxXhXyXc.a.n c c ",
"X X & 4 E ' !.|.|.|. X(./ 7 $ : j 6.<.V.G.2X*X*XH.F.Q.O.k M i.m.uXwXiXuXuXuXuXiXfXfXgXjXlXlXlXxXzXzXzXzXjXhXpXpXsXgXdXi.b b M 1 ",
"X o $ 4 W C.OX'.|.{. X(.O.7 : w } 3./.R.G.2XA.*X*XL..X_ k M b i.8XpXgXpXuXpXfXiXfXfXuXuXpXpXpXgXiXfXuXuXwXqXeXeXsX0Xb.t.Z M c 1 ",
"X o @ 4 Q Q.(.B.B.B.R.&.^ 4 # w } s./.V.F.H.-X&X*XH.I.&.o.D n t.c.v.wXwXqXrXuXsXfXfXfXuXwXwXeXqXiXuXuXaXaXyXrXyX9Xz.B V V v 3   ",
"  . $ 7 W #.&.B.T.B.T.$.( 5 % e  .d.Y.U.J.S.-X&X@XA.oXQ...o.k h b y.c.9XdXrXqXdXwXwXwXuXfXsXsXgXfXfXrXrXyXtXb.a.h y.V y.m g +   ",
". @ # 4 ^ #.6.<.<.$.<.#.~ 4 # 7  .d./.U.G.J.$X&X%X#XK.[.Q.%.o.k x h h y.a.c.v.n.9X9X9X9X9X9X0X8Xn.v.c.k.y.h h h y.B B M f -     ",
"@ @ $ 4 } ;.3.9.4.4.4.=.u 4 # 7  .1.<.U.G.H.#X@X&X=X2X{.!.Q.#.@.w.F H F F h h h y.t.t.t.t.t.t.t.t.b N M F D F a.V f f f X       ",
"@ # # 6 { ;.s.d.7Xd.7X,.~ 6 4 7  .,.<.Z.G.K.#X%X#X#X<X2X}. X!.e.{ D x k x F F a.V V y.V B B B Z b C s v k k S k k < - = .   . @ ",
"@ # # e  .s.d.7X7X7X7X,.~ 6 # 6  .,.<.U.G.K.:X#X&X*X<X2X2X}.|.!.XXXXe.+...} o.j l l l D l l z z p a o.O.%.e.e.j.i % o $ o . . @ ",
"@ # % 7  .1.4.7X7X7X7X,.[ w : w  .3.,.T.G.K.:X%X*X*XA.*X:X>X<XL.S.G.G.].[..X!..XQ.Q.Q.Q.Q.Q.+X!..X[. X|.{._.[.(.W 5 # & +       ",
"# 6 % e | ,.<.<.7X~.^.=.[ w w w  .-.$.Z.).}.>X:X<XS.A.*X,X#X#X*X$X=X=X*X<XL.L.J.J.J.L.L.L.L.L.K.3X,X,X,X,X6X}. X) 9 # O       + ",
": w : 7 | 6.6.0.:.,.0.6.j w w r  .-.:.$.).}.>X:XH.L.S.*X#X%X%X%X4X@X@X$XA.A.<X3XH.H.H.<X*X*X*X*XA.A.3X:X:X;XL.[.) 9 4 #         ",
": w : w | 6.#.#.,.$.<.#.j w : e  .3.,.T.).`.>X>XS.S.S.S.#X%X@X&X@X@X&X=X=X*X*XH.H.*X<X<X*X#X=X=X-X*X-X*X$XA.F.[.Q 9 4 * @   +   ",
"% w % e ..3.,.,.<.>.<.7.[ e : e X.g.<.Y.R.).5XK.H.S.A.H.*X*X3X<X*X*X*X*X=X*X*X*X*X*X=X*X*X*X*X*X&X&X&X=X;X}.'.(./ 0 % % o   .   ",
"% w % e | 9.3.2.4.:.^.=.[ w % e  .g.,.Y.R.).|.K.H.<X<X*XP.;X3X3X<X*X<X<X$X=X#X=X*X=X*X*X=X*X<X*X&X4X@X$X2X|.[.Q./ 0 6 $ o . X   ",
"% % : e X.,.3.<.4.:.4.0.[ w % w } g.,.>.U.R.'.}.K.<X<X*X*X*X=X1X;X3X;X;X;X:X#X<X:X:X:X1X:X;X3X;X@X&X#X<X2X|.W.` ^ 0 % : o   X   ",
"$ : % w | =.3.<.2.>.4.=.[ w % w } -.1.~.Y.R.).`.K.H.<X*X$X@X@X#X;X;X;X:X:X:X:X#X:X:X:X:X>X1X;X:X$X=X:X3X}.].E.$.W e % : o .   . ",
"$ : $ w | =.1.4.^.>.4.,.[ w % w } g.g.;.Y.T.R.).|.K.H.*X=X&X&X@X*X<X<X<X<X:X#X=X=X=X<X1X<X<X;X<XH.<X5X}.|.).U.%.! 7 % ; X   .   ",
"$ : % w { =.3.4.~.>.4.3.[ w % w } g.g.1./.$.R.R.'.{.K.H.=X=X4X@X*X<X<X<X*X*X1X*X=X-X*X*X<X<X<X<XK.}.5X_._.E.T.#.! 6 ; > o       ",
"o * $ w | ;.<.4.~./.~.,.[ 6 % e [ f.g.1.<./.T.T.W.W.'.J.K.<X1X=X<XA.S.*X*X-X*X-XA.-X*XA.A.A.A.H.{.|.{._.W.E.>.#.y 6 ; ; X       ",
"$ : % 6 ^ =.3.4.~.>.~.,.[ 7 % 6 [ -.-.;.^.~.^.$.Y.E.W.[.{.J.K.2XH.<X*XS.*XS.*X*X*X*X*X*X*XH.P.K.|. X_.W.T./.$.#.y 6 $ > .       ",
"@ * : 6 ~ #.4.:.^./.>.#.{ 7 4 e ~ 7.3.=.4.4.4.4.^./.Y.T.W.).'.|.K.>X2X2X>X>X3X>X;X>X>X3X2X6X2X5X_.W.E.E.T.T.=.| t w $ O         ",
". % : 6 ! X.3.,.<.>.>.:.{ 7 6 7 ! 3.,.;.4.3.d.d.1.2.:.$./.U.E.R._.`.`.}.}.}.}.}.5X}.}.`.`.).D.V.E.Y.Y.Y./.<.#.| e % ; o X       ",
". % * 6 y | 7.0.<.4.^.0...0 6 t ! 6.,.,.s.4.d.s.s.s.s.4.,.>.>.Y.Y.T.Y.T.U.E.E.E.U.R.T.T.U.U.U./.~.>.Y.~.<.<.*.~ 7 : $ O         ",
". @ $ % 0 ^ X.7.#.6.0.6.{ 6 4 5 W 6.0.=.4.1.1.s.s.s.g.s.4.1.<.4.:.,.<.2.<.<.:.$.>.>.$.>.:.:.:.:.~.>.~.<.4.0.*.~ e % $ X     .   ",
". $ & % 6 t } ..5.8.9.8.o.e 4 7 q 6.7.,.4.4.4.d.1.s.1.-.3.3.1.2.4.4.d.7X4.^.4.~.>.^.7X4.4.4.d.1.4.2.4.2.1.0.X.u w : o .     .   ",
"    X o % 7 i [ +.+.5.+.j e 6 t q 5.0.,.4.,.2.4.4.4.1.1.3.1.1.1.;.;.;.-.-.3.,.,.;.,.,.9.3.s.-.s.1.1.4.1.,.7.*.y 6 % $ X .     . ",
"      O : % 6 e i y y u e # # 4 q *.7.,.4.:.2.^.^.<.:.<.4.4.:.#. .} } ................{ [ [ [ { ;.,.1.3.,.-.X.t 6 % . .     . . ",
"      X * : $ % % 6 7 7 6 % % 7 q 5.7.3.4.>.>.4.2.>.:.<.4.<.:.#.t e e 6 6 6 4 7 5 7 7 0 t t u ~ ;.4.s.4.7.7.| 6 6 % o X       . ",
"        . $ . o > $ % % @ % % 7 0 *.7.,.~.4.2.4.3.1.1.4.,.3.=.^ t 6 6 6 : % % w 4 e t y ^  .*.;.2.~.4.2.7.+.j 6 $ o             ",
"          . . . + .   . @ $ % 4 t *.-.1.~.~.1.s.1.-.3.4.4.3.*.^ 7 4 % % $ @ $ : e [ +.5.-.4.d.^.~.~.2.3.7...i % , o .           ",
"                      . . @ # 6 0 ..9.1.~.7X2.4.3.1.1.4.1.0.*.~ 7 6 % $ . $ $ w w [ 8.9.3.1.2.~.^./.>.3.5.} t % % o .           ",
"            .         . . @ % w e } 7.4.4.~.1.4.d.1.4.4.,.3.*.^ 6 % * . . @ : w w [ 5.9.3.:.2.^.~.>.,.4.6.~ e 6 @ .             ",
"                        . @ % 6 7 { 6.9.2.~.4.2.1.1.2.4.4.,.*.y 4 $ $ . . o $ 6 7 [ 5.9.3.>.~.^.~.>.,.9.5.~ 7 % % $ .           ",
"            .           . . @ % 6 ~ 5.4.>.2.^.2.4.~.~.2.<.,.*.u w $ $ * < , % % 6 y X.7.0.<.>.<.4.4.9.5.| t 6 6 @ . .         . ",
"        . .           + . $ $ % 6 u 6.0.>.>.7X2.~.2.2.~.:.,.*.~ w @ & S G S < % 6 i { +.9.9.,.0.,.6.5.| u e % % $ . .         . ",
"                    + O & * * % % u 5.4.>.2.^.2.7X4.4.<.,.,.X.y 6 . & D h.G r % % 4 t { ..X.X.X.X.+...y 6 4 % , k 2 3 o +       ",
"  + +   .       O s L T Y G p @ % t | 7.4.<.:.4.,.3.4.<.6.6...0 w $ > D h.I k o $ 6 6 e e t t t 7 0 t e 6 % * 2 q.T P P A 2     ",
"            & s Y Y Y P L D p * 6 i ..#.,.,.,.9.-.9.9.=.6.5...t % . , G h.I A k > $ % % % % % % e 6 % # @ * S G L P U r.r.P S s ",
"        .   & T L P U Y l.I S @ @ 4 y | 6.7.7.f.8.5.X.X.^ q 4 # @ & k L h.p.P T p p * * * : & $ $ % % * p A T r.Y Y U K r.r.K R ",
"      .     + A r.U U U T L S , & % 4 0 q 0 0 7 t 7 7 0 0 6 6 r r p A T p.U U Y h.T R D A A A S D D G I q.Y T P P U P K r.r.P v ",
"              3 R K K r.h.h.T G 3 * % 6 e e e w w % % 6 6 $ $ , D G H p.Y U U U h.h.Y Y Y L T r.l.q.T T r.r.T T U l.l.Y K R s   ",
"  +     .         + 1 R R T q.q.P R D z z w , , < < , k k S G P I I p.p.p.U U U R L q.Y r.T r.r.Y T T T T r.r.T P P R 2 3 3     ",
"  +     . +     +         + 2 s K R G I w.I Y l.r.r.p.I p.I K K I I p.K K p.p.U q.T T q.q.L T L r.r.T L R A v 2 O O         + + ",
"        +                           . $ > > 1 1 c c N S J K K K P U p.K J J P P r.R D S A p s 3 O 3 O + +                       "
};
